<svg width="512" height="512" viewBox="0 0 512 512" fill="none" xmlns="http://www.w3.org/2000/svg">
  <defs>
    <linearGradient id="grad1" x1="0%" y1="0%" x2="100%" y2="100%">
      <stop offset="0%" stop-color="#818cf8" />
      <stop offset="100%" stop-color="#c084fc" />
    </linearGradient>
  </defs>
  <!-- Left Link -->
  <path d="M220 340 L190 370 C145.817 414.183 74.183 414.183 30 370 C-14.183 325.817 -14.183 254.183 30 210 L130 110 C174.183 65.817 245.817 65.817 290 110 L305 125" stroke="url(#grad1)" stroke-width="48" stroke-linecap="round" stroke-linejoin="round"/>
  
  <!-- Right Link -->
  <path d="M292 172 L322 142 C366.183 97.817 437.817 97.817 482 142 C526.183 186.183 526.183 257.817 482 302 L382 402 C337.817 446.183 266.183 446.183 222 402 L207 387" stroke="url(#grad1)" stroke-width="48" stroke-linecap="round" stroke-linejoin="round"/>
  
  <!-- Middle Connection -->
  <line x1="190" y1="322" x2="322" y2="190" stroke="url(#grad1)" stroke-width="48" stroke-linecap="round"/>
</svg>
